<?xml version="1.0" encoding="UTF-8"?>
<svg id="Capa_1" data-name="Capa 1" xmlns="http://www.w3.org/2000/svg" viewBox="0 0 1000 1000">
  <defs>
    <style>
      .cls-1 {
        fill: #fff;
      }

      .cls-2 {
        fill: #498974;
      }
    </style>
  </defs>
  <path class="cls-1" d="M500,5.66C226.98,5.66,5.66,226.98,5.66,500s221.32,494.34,494.34,494.34,494.34-221.32,494.34-494.34S773.02,5.66,500,5.66ZM500,939.59c-242.78,0-439.59-196.81-439.59-439.59S257.22,60.41,500,60.41s439.59,196.81,439.59,439.59-196.81,439.59-439.59,439.59Z"/>
  <path class="cls-1" d="M220.43,331.76h140.68s18.38,2.04,26.55,24.51,165.51,346.98,165.51,346.98c0,0,8.23,15.13,1.15,27.19-7.09,12.06-21.26,42.13-21.26,42.13l-11.3,19.34s-5.36,6.13-9.77,10.72c-4.4,4.6-8.62,5.94-11.3,6.13s-10.15.77-12.26,0-7.66-1.15-19.53-27.57-179.23-367.09-179.23-367.09c0,0-4.4-12.83-22.6-27.19s-45.77-37.53-47.87-41.74-7.85-13.6,0-13.4"/>
  <path class="cls-2" d="M520.87,568.65c4.85,16.12,51.3,106.57,53.08,110.26.08.08.38.42,1.12.54.7.1,1.38-.26,1.99-.89.83-.92,1.23-2,1.56-2.84.74-1.88,174.97-349.06,181.14-359.4,2.6-4.78,21.43-32.3,22.4-34.11.39-.73,1.76-3.69,2.75-7.46,1.3-5.01,1.41-8.16-2.1-11.86s-11.39-.75-14.89.25c-3.36,1.03-6.93,2.55-10.21,4.09-16.07,7.89-45.43,24.95-63.73,36.18-9.14,5.7-19.63,12.07-29.88,21.01-10.53,9.29-25.66,24.69-34.76,36.23-6.22,8.37-9.57,13.58-18.81,26.92-12.16,17.89-42.84,75.47-45.92,81.45-14.85,28.8-30.94,55.22-36.47,67.44-5.21,11.14-10.83,19.72-7.28,32.03l.04.14Z"/>
</svg>